<?xml version="1.0" standalone="no"?>
<!DOCTYPE svg PUBLIC "-//W3C//DTD SVG 20010904//EN"
 "http://www.w3.org/TR/2001/REC-SVG-20010904/DTD/svg10.dtd">
<svg version="1.0" xmlns="http://www.w3.org/2000/svg"
 width="938.000000pt" height="938.000000pt" viewBox="0 0 938.000000 938.000000"
 preserveAspectRatio="xMidYMid meet">

<g transform="translate(0.000000,938.000000) scale(0.100000,-0.100000)"
fill="#000000" stroke="none">
<path d="M1490 4610 l0 -510 185 0 185 0 0 270 c0 164 4 270 9 270 27 0 103
-140 116 -212 17 -93 25 -19 25 234 0 150 -4 268 -8 263 -5 -6 -16 -37 -26
-70 -20 -69 -69 -156 -97 -173 -18 -12 -19 -6 -19 193 0 113 2 205 5 205 2 0
28 -5 57 -11 61 -13 133 -46 173 -80 43 -36 100 -131 130 -214 15 -41 29 -75
31 -75 2 0 4 95 4 210 l0 210 -385 0 -385 0 0 -510z"/>
<path d="M2320 4610 l0 -510 180 0 180 0 1 480 c1 264 2 492 3 508 l1 27 -182
3 -183 2 0 -510z"/>
<path d="M2750 4611 l0 -511 171 0 172 0 -6 148 c-8 219 -42 319 -179 530 -34
51 -57 96 -53 100 4 4 9 2 12 -4 2 -6 43 -60 91 -120 208 -262 294 -438 278
-570 -3 -29 -9 -59 -12 -68 -5 -14 15 -16 184 -16 l190 0 6 43 c8 55 -8 148
-34 203 -33 67 -110 129 -250 199 -118 59 -268 146 -225 130 91 -34 206 -56
268 -52 119 8 205 83 229 201 22 112 -29 209 -140 263 l-57 28 -322 3 -323 3
0 -510z m326 445 c28 -7 74 -28 102 -47 119 -77 147 -253 48 -294 -29 -13 -41
-13 -80 -1 -26 8 -68 28 -95 45 -108 70 -281 286 -253 316 11 11 220 -3 278
-19z"/>
<path d="M3738 5105 c-15 -9 -40 -37 -55 -63 -24 -40 -28 -58 -28 -118 1 -83
30 -153 96 -224 l41 -45 -24 -14 c-51 -33 -105 -98 -118 -145 -28 -100 9 -226
87 -297 60 -54 105 -78 188 -99 177 -45 365 -8 466 93 133 133 129 358 -10
496 -71 71 -140 107 -354 187 -95 36 -189 76 -210 90 -39 26 -62 66 -52 92 9
24 87 9 163 -32 199 -107 250 -129 322 -134 84 -6 117 6 164 59 38 41 51 88
38 134 l-8 30 -340 2 c-283 2 -343 0 -366 -12z m355 -630 c176 -94 229 -134
253 -191 13 -30 13 -38 -1 -65 -44 -85 -201 -51 -325 72 -92 91 -190 255 -190
319 0 17 5 15 48 -13 26 -18 123 -72 215 -122z"/>
<path d="M4527 5113 c-4 -3 -7 -150 -7 -325 0 -276 2 -318 15 -318 11 0 15 12
15 44 0 207 141 465 298 545 57 29 73 28 67 -6 -2 -16 -6 -68 -9 -118 -13
-225 -119 -594 -221 -775 l-34 -60 290 0 c159 0 289 2 289 5 0 3 -11 22 -24
43 -99 158 -209 535 -236 811 -12 125 -12 121 5 121 64 0 208 -134 268 -248
43 -82 87 -240 87 -313 0 -37 4 -49 15 -49 13 0 15 43 15 325 l0 325 -413 0
c-228 0 -417 -3 -420 -7z"/>
<path d="M5437 5113 c-4 -3 -7 -233 -7 -510 l0 -503 185 0 185 0 0 270 c0 156
4 270 9 270 29 0 105 -136 117 -209 16 -103 24 -32 24 223 0 152 -2 276 -4
276 -1 0 -15 -37 -30 -82 -26 -79 -85 -178 -106 -178 -6 0 -10 76 -10 205 0
143 3 205 11 205 31 0 139 -34 176 -56 79 -45 151 -148 187 -266 10 -32 20
-58 22 -58 2 0 4 95 4 210 l0 210 -378 0 c-208 0 -382 -3 -385 -7z"/>
<path d="M6260 4610 l0 -510 385 0 385 0 0 250 c0 237 -9 309 -25 203 -29
-196 -177 -371 -342 -407 l-33 -8 0 491 0 491 -185 0 -185 0 0 -510z"/>
<path d="M7327 5109 c-92 -22 -160 -78 -205 -169 l-27 -55 -3 -392 -3 -393
174 0 c150 0 176 2 181 16 11 30 6 132 -9 175 -18 49 -95 204 -132 261 -12 21
-23 42 -23 48 0 6 47 10 125 10 l125 0 0 -255 0 -255 185 0 185 0 0 510 0 510
-267 -1 c-148 -1 -285 -5 -306 -10z m203 -244 l0 -215 -139 0 -139 0 -21 53
c-73 179 -25 336 114 370 11 3 57 5 103 6 l82 1 0 -215z"/>
<path d="M7930 5116 c0 -8 38 -93 180 -406 81 -179 176 -388 210 -465 34 -77
66 -144 71 -149 4 -5 23 24 42 65 18 41 74 163 123 271 49 109 92 198 95 198
4 0 62 -122 130 -270 67 -149 126 -267 130 -263 8 8 60 122 264 573 53 118
111 244 127 280 17 36 41 89 54 118 l24 52 -185 0 c-178 0 -185 -1 -196 -21
-19 -35 -5 -87 56 -212 53 -109 58 -124 59 -190 1 -54 -4 -82 -19 -111 -11
-22 -24 -39 -29 -38 -4 0 -51 95 -103 209 -51 114 -109 242 -128 283 l-35 75
-180 3 c-99 1 -180 1 -180 -1 0 -2 27 -64 60 -137 104 -228 122 -315 84 -395
-24 -51 -32 -52 -53 -3 -10 24 -32 72 -49 108 -17 36 -53 117 -82 180 -28 63
-65 145 -82 183 l-32 67 -178 0 c-98 0 -178 -2 -178 -4z"/>
<path d="M1155 5088 c-145 -16 -142 -15 -149 -49 -3 -18 -6 -53 -6 -79 l0 -48
-97 -7 c-143 -11 -138 -7 -138 -106 l0 -84 -117 -3 -118 -3 0 -67 c0 -112 3
-109 -107 -114 -65 -4 -98 -10 -104 -19 -6 -8 -7 -42 -4 -76 4 -35 5 -63 3
-64 -2 0 -42 -4 -91 -8 -48 -4 -90 -11 -95 -15 -4 -4 -7 -61 -7 -127 0 -110 2
-120 23 -141 20 -21 33 -23 140 -26 64 -1 225 3 357 10 156 9 298 10 405 5
194 -9 337 -5 368 12 l22 12 0 341 c0 188 -5 392 -11 453 -6 60 -13 134 -15
163 l-5 52 -87 -1 c-48 -1 -123 -6 -167 -11z"/>
</g>
</svg>
